<?xml version="1.0" encoding="utf-8"?>
<!-- Generator: Adobe Illustrator 16.0.0, SVG Export Plug-In . SVG Version: 6.00 Build 0)  -->
<!DOCTYPE svg PUBLIC "-//W3C//DTD SVG 1.1//EN" "http://www.w3.org/Graphics/SVG/1.1/DTD/svg11.dtd">
<svg version="1.1" id="Layer_1" xmlns="http://www.w3.org/2000/svg" xmlns:xlink="http://www.w3.org/1999/xlink" x="0px" y="0px"
	 width="512px" height="375.333px" viewBox="0 0 512 375.333" enable-background="new 0 0 512 375.333" xml:space="preserve">
<g>
	<path fill="#999999" d="M104,3v100H2.942c0,0,0.128,131.908,0,195.842c-0.081,42.648,29.372,73.22,72.262,73.268
		c120.735,0.137,240.841,0.217,361.56,0.289c44.662,0.024,71.79-26.675,71.806-71.336C508.603,203.044,509,3,509,3H104z M104,304
		h-0.002c0,0.029,0.002,0.058,0.002,0.087c0,18.777-15.222,33.998-33.999,33.998c-18.776,0-33.998-15.221-33.998-33.998
		c0-0.029,0.002-0.058,0.002-0.087H36V139h68V304z M434,332H178v-55h256V332z M434,215H178v-55h256V215z M434,98H178V43h256V98z"/>
</g>
</svg>
