<?xml version="1.0" encoding="utf-8"?>
<!-- Generator: Adobe Illustrator 16.0.0, SVG Export Plug-In . SVG Version: 6.00 Build 0)  -->
<!DOCTYPE svg PUBLIC "-//W3C//DTD SVG 1.1//EN" "http://www.w3.org/Graphics/SVG/1.1/DTD/svg11.dtd">
<svg version="1.1" id="Layer_1" xmlns="http://www.w3.org/2000/svg" xmlns:xlink="http://www.w3.org/1999/xlink" x="0px" y="0px"
	 width="476.996px" height="512px" viewBox="0 0 476.996 512" enable-background="new 0 0 476.996 512" xml:space="preserve">
<g>
	<path fill-rule="evenodd" clip-rule="evenodd" fill="#999999" d="M2.878,155.74c0.324-43.481,14.521-82.438,46.363-113.899
		C60.8,30.444,73.41,20.027,86.329,10.167c14.974-11.437,31.584-9.793,45.603,3.506c5.099,4.832,10.182,9.882,14.196,15.58
		c15.558,22.033,31.422,43.935,40.908,69.544c8.726,23.579,4.161,42.973-14.488,59.582c-8.516,7.576-17.112,15.185-26.467,21.619
		c-21.208,14.585-23.911,32.765-15.979,55.598c7.285,21.037,19.928,39.07,33.575,56.319c18.018,22.802,37.185,44.606,59.816,63.045
		c12.4,10.094,25.432,19.167,41.344,23.06c14.44,3.537,26.679-0.348,37.298-10.595c9.647-9.308,19.28-18.689,29.494-27.358
		c18.212-15.459,38.108-17.055,59.33-6.144c19.978,10.271,36.295,25.278,52.677,40.114c8.758,7.949,16.966,16.738,24.201,26.096
		c12.854,16.658,11.283,34.385-4.289,48.509c-15.849,14.391-30.822,29.891-49.716,40.689c-24.896,14.228-51.51,21.277-80.162,21.165
		c-41.038-0.154-77.866-13.897-112.363-34.805c-46.314-28.079-84.34-65.538-119.21-106.471
		c-27.827-32.643-52.806-67.253-71.681-105.951C13.984,229.615,3.187,194.454,2.878,155.74z"/>
</g>
</svg>
