<?xml version="1.0" encoding="utf-8"?>
<!-- Generator: Adobe Illustrator 16.0.0, SVG Export Plug-In . SVG Version: 6.00 Build 0)  -->
<!DOCTYPE svg PUBLIC "-//W3C//DTD SVG 1.1//EN" "http://www.w3.org/Graphics/SVG/1.1/DTD/svg11.dtd">
<svg version="1.1" id="Layer_1" xmlns="http://www.w3.org/2000/svg" xmlns:xlink="http://www.w3.org/1999/xlink" x="0px" y="0px"
	 width="512px" height="512px" viewBox="0 0 512 512" enable-background="new 0 0 512 512" xml:space="preserve">
<g>
	<path fill-rule="evenodd" clip-rule="evenodd" fill="#999999" d="M369.001,289.029c13.138-26.773,16.05-44.101,12.556-74.875
		c1.678,1.148,3.117,1.867,4.18,2.946c31.434,31.683,63.809,62.491,93.959,95.354c36.776,40.094,39.021,104.837,6.937,148.731
		c-45.309,62.012-128.972,60.417-176.01,17.2c-40.119-36.882-78.233-76.043-115.919-115.439
		c-40.752-42.611-43.184-111.937-6.904-157.511c4.609-5.807,10.485-11.22,16.874-14.886c12.66-7.246,27.323-4.086,36.984,6.492
		c9.474,10.381,10.981,26.809,3.443,38.619c-1.405,2.236-3.135,4.24-4.745,6.347c-20.076,26.192-18.962,57.207,4.18,80.887
		c33.952,34.749,68.521,68.905,102.969,103.182c10.62,10.579,23.554,17.269,38.523,18.604c22.355,1.995,40.787-5.953,51.837-25.806
		c11.922-21.403,10.106-43.714-5.208-62.259c-17.627-21.335-37.909-40.496-57.042-60.599
		C373.368,293.646,371.125,291.273,369.001,289.029z"/>
	<path fill-rule="evenodd" clip-rule="evenodd" fill="#999999" d="M144.033,222.402c-13.601,24.521-17.129,48.889-13.48,75.533
		c-2.279-1.523-4.231-2.415-5.638-3.837c-30.49-30.766-62.009-60.588-91.13-92.595C-22.06,140.152,0.998,40.131,77.415,11.386
		c44.435-16.71,87.448-9.892,122.48,21.602c41.489,37.309,80.887,77.17,118.915,118.06c41.729,44.88,40.907,118.881,1.045,161.441
		c-6.989,7.477-14.902,13.208-25.66,13.071c-12.625-0.147-22.852-5.576-28.282-16.856c-5.79-12.06-5.259-24.573,3.753-35.374
		c10.516-12.634,17.643-26.346,15.981-43.364c-1.405-14.5-5.772-27.974-16.188-38.525c-34.346-34.852-68.846-69.54-103.5-104.091
		c-10.791-10.749-23.69-18.14-39.142-19.596c-23.263-2.185-41.798,6.175-53.137,26.988c-11.683,21.463-8.565,43.065,5.996,61.351
		c14.578,18.287,31.845,34.423,48.118,51.338C132.813,212.655,138.448,217.289,144.033,222.402z"/>
</g>
</svg>
