<?xml version="1.0" encoding="utf-8"?>
<!-- Generator: Adobe Illustrator 16.0.0, SVG Export Plug-In . SVG Version: 6.00 Build 0)  -->
<!DOCTYPE svg PUBLIC "-//W3C//DTD SVG 1.1//EN" "http://www.w3.org/Graphics/SVG/1.1/DTD/svg11.dtd">
<svg version="1.1" id="Layer_1" xmlns="http://www.w3.org/2000/svg" xmlns:xlink="http://www.w3.org/1999/xlink" x="0px" y="0px"
	 width="512px" height="488px" viewBox="0 0 512 488" enable-background="new 0 0 512 488" xml:space="preserve">
<g>
	<path fill="#999999" d="M440.107,237.513H406.35c-5.891,14.931-12.752,29.146-20.289,42.55h22.508l44.275,164.377H59.139
		l44.292-164.377h28.715c-7.47-13.404-14.334-27.619-20.271-42.55H71.892L1.821,486.979H510.18L440.107,237.513z"/>
	<path fill="#999999" d="M259.137,383.717c0,0,135.48-108.986,135.48-246.463c0-74.871-60.686-135.565-135.48-135.565
		c-74.859,0-135.53,60.694-135.53,135.565C123.607,274.731,259.137,383.717,259.137,383.717z M259.137,83.328
		c30.807,0,55.783,25.004,55.783,55.838c0,30.829-24.977,55.809-55.783,55.809c-30.838,0-55.833-24.979-55.833-55.809
		C203.303,108.333,228.299,83.328,259.137,83.328z"/>
</g>
</svg>
