<?xml version="1.0" encoding="utf-8"?>
<!-- Generator: Adobe Illustrator 16.0.0, SVG Export Plug-In . SVG Version: 6.00 Build 0)  -->
<!DOCTYPE svg PUBLIC "-//W3C//DTD SVG 1.1//EN" "http://www.w3.org/Graphics/SVG/1.1/DTD/svg11.dtd">
<svg version="1.1" id="Layer_1" xmlns="http://www.w3.org/2000/svg" xmlns:xlink="http://www.w3.org/1999/xlink" x="0px" y="0px"
	 width="519px" height="472.5px" viewBox="0 0 519 472.5" enable-background="new 0 0 519 472.5" xml:space="preserve">
<g>
	<path fill="#999999" d="M515.393,178.307c-7.063-59.291-32.719-110.272-69.52-156.135C438.6,13.11,431.474-1.079,416.944,3.78
		c-15.097,5.054-14.563,20.66-14.61,33.723c-0.308,64.207-1.085,383.198,0.309,400.537c1.376,17.008,12.828,28.621,27.52,30.646
		c15.841,2.195,29.285-5.813,35.375-22.757c2.641-7.386,3.58-15.775,3.481-23.681c-0.259-18.279-2.703-36.559-2.282-54.796
		c0.519-22.32,0.583-45.158,5.521-66.701c3.564-15.558,14.515-29.495,22.597-43.911
		C508.557,232.415,518.826,207.341,515.393,178.307z"/>
	<path fill="#999999" d="M324.23,114.579c-0.552-32.694-3.014-65.324-4.763-97.994c-0.438-8.139-4.908-12.893-12.941-12.61
		c-8.796,0.316-12.326,5.912-12.229,14.57c0.21,20.003,0.113,40.007,0.018,60.011c-0.033,3.879,0.16,12.941-4.146,12.181
		c-3.742-0.665-9.021-53.273-11.111-74.849c-0.826-8.495-5.459-12.148-13.233-12.01c-7.726-0.138-12.455,3.515-13.281,12.01
		c-2.09,21.575-7.402,74.184-11.144,74.849c-4.308,0.761-4.114-8.302-4.146-12.181c-0.113-20.004-0.194-40.008,0.016-60.011
		c0.081-8.658-3.434-14.254-12.229-14.57c-8.034-0.283-12.504,4.471-12.942,12.61c-1.749,32.67-4.211,65.3-4.762,97.994
		c-0.162,9.686,2.786,21.016,8.244,28.88c19.227,27.689,20.668,58.302,19.891,90.187c-1.506,61.267-1.36,194.881-1.279,207.337
		c0.146,19.016,13.298,28.518,31.471,28.518c0.033,0,0.162,0,0.162,0c0.017,0,0.049,0,0.081,0c18.174,0,31.325-9.502,31.472-28.518
		c0.081-12.456,0.227-145.023-1.279-206.283c-0.777-31.893,0.664-63.033,19.874-90.714
		C321.444,136.13,324.393,124.265,324.23,114.579z"/>
	<path fill="#999999" d="M142.415,85.642c-0.194-2.583-0.373-8.561-1.183-14.448c-4.697-34.468-33.415-63.801-64.595-66.15
		c-1.425-0.113-2.851-0.146-4.276-0.146c-1.102,0-2.592,0.033-4.017,0.146C37.181,7.393,8.722,36.726,4.024,71.194
		c-0.81,5.888-0.988,11.865-1.183,14.448c0.632,30.994,8.909,55.395,26.645,77.334c6.9,8.552,11.954,21.404,11.921,32.273
		c-0.275,71.024-2.479,142.026-3.386,213.052c-0.162,12.107,0.907,24.741,4.39,36.25c4.406,14.514,16.716,21.682,29.949,21.737
		c13.946-0.057,25.818-7.226,30.208-21.737c3.499-11.509,4.681-24.143,4.535-36.25c-0.907-71.025-3.045-142.025-3.32-213.052
		c-0.049-10.869,5.037-23.722,11.954-32.273C133.474,141.037,141.783,116.636,142.415,85.642z"/>
</g>
</svg>
